<svg xmlns="http://www.w3.org/2000/svg" width="1299" height="411" fill="none" xmlns:v="https://vecta.io/nano"><path d="M0 0h1299v311c0 55.228-44.77 100-100 100H50c-27.614 0-50-22.386-50-50V0z" fill="#fff"/><g fill="#515151"><path d="M113.432 285.944a3.03 3.03 0 0 1-.384 1.472c-.256.459-.635.843-1.136 1.152-.491.309-1.083.485-1.776.528v1.296h-.864v-1.296c-.971-.085-1.76-.395-2.368-.928-.608-.544-.917-1.232-.928-2.064h1.552a2.03 2.03 0 0 0 .496 1.168c.299.331.715.539 1.248.624v-4c-.715-.181-1.291-.368-1.728-.56a2.83 2.83 0 0 1-1.12-.896c-.309-.405-.464-.949-.464-1.632 0-.864.299-1.579.896-2.144.608-.565 1.413-.88 2.416-.944v-1.328h.864v1.328c.907.075 1.637.368 2.192.88.555.501.875 1.157.96 1.968h-1.552c-.053-.373-.219-.709-.496-1.008-.277-.309-.645-.512-1.104-.608v3.904c.704.181 1.275.368 1.712.56a2.57 2.57 0 0 1 1.12.88c.309.405.464.955.464 1.648zm-5.984-5.216c0 .523.155.923.464 1.2s.763.507 1.36.688v-3.696c-.555.053-.997.235-1.328.544-.331.299-.496.72-.496 1.264zm2.688 7.184c.576-.064 1.024-.272 1.344-.624a1.78 1.78 0 0 0 .496-1.264c0-.523-.16-.923-.48-1.2-.32-.288-.773-.517-1.36-.688v3.776zm5.809-4.816c0-1.835.299-3.264.896-4.288.597-1.035 1.643-1.552 3.136-1.552 1.483 0 2.523.517 3.12 1.552.597 1.024.896 2.453.896 4.288 0 1.867-.299 3.317-.896 4.352S121.46 289 119.977 289c-1.493 0-2.539-.517-3.136-1.552s-.896-2.485-.896-4.352zm6.608 0c0-.928-.064-1.712-.192-2.352-.117-.651-.368-1.173-.752-1.568-.373-.395-.917-.592-1.632-.592-.725 0-1.28.197-1.664.592-.373.395-.624.917-.752 1.568-.117.64-.176 1.424-.176 2.352 0 .96.059 1.765.176 2.416.128.651.379 1.173.752 1.568.384.395.939.592 1.664.592.715 0 1.259-.197 1.632-.592.384-.395.635-.917.752-1.568.128-.651.192-1.456.192-2.416zm69.145 2.848a3.03 3.03 0 0 1-.384 1.472c-.256.459-.635.843-1.136 1.152-.491.309-1.083.485-1.776.528v1.296h-.864v-1.296c-.971-.085-1.76-.395-2.368-.928-.608-.544-.918-1.232-.928-2.064h1.552c.042.448.208.837.496 1.168.298.331.714.539 1.248.624v-4c-.715-.181-1.291-.368-1.728-.56a2.83 2.83 0 0 1-1.12-.896c-.309-.405-.464-.949-.464-1.632 0-.864.298-1.579.896-2.144.608-.565 1.413-.88 2.416-.944v-1.328h.864v1.328c.906.075 1.637.368 2.192.88.554.501.874 1.157.96 1.968h-1.552a1.85 1.85 0 0 0-.496-1.008c-.278-.309-.646-.512-1.104-.608v3.904c.704.181 1.274.368 1.712.56a2.57 2.57 0 0 1 1.12.88c.309.405.464.955.464 1.648zm-5.984-5.216c0 .523.154.923.464 1.2s.762.507 1.36.688v-3.696c-.555.053-.998.235-1.328.544-.331.299-.496.72-.496 1.264zm2.688 7.184c.576-.064 1.024-.272 1.344-.624.33-.352.496-.773.496-1.264 0-.523-.16-.923-.48-1.2-.32-.288-.774-.517-1.36-.688v3.776zm13.185-9.216h-5.616v3.648c.245-.341.608-.619 1.088-.832.48-.224.997-.336 1.552-.336.885 0 1.605.187 2.16.56.554.363.949.837 1.184 1.424a4.65 4.65 0 0 1 .368 1.84c0 .768-.144 1.456-.432 2.064s-.731 1.088-1.328 1.44c-.587.352-1.318.528-2.192.528-1.12 0-2.027-.288-2.72-.864s-1.115-1.344-1.264-2.304h1.424c.138.608.432 1.083.88 1.424s1.013.512 1.696.512c.842 0 1.477-.251 1.904-.752.426-.512.64-1.184.64-2.016s-.214-1.472-.64-1.92c-.427-.459-1.056-.688-1.888-.688-.566 0-1.062.139-1.488.416-.416.267-.72.635-.912 1.104h-1.376v-6.528h6.96v1.28zm2.671 4.4c0-1.835.298-3.264.896-4.288.597-1.035 1.642-1.552 3.136-1.552 1.482 0 2.522.517 3.12 1.552.597 1.024.896 2.453.896 4.288 0 1.867-.299 3.317-.896 4.352S209.772 289 208.29 289c-1.494 0-2.539-.517-3.136-1.552s-.896-2.485-.896-4.352zm6.608 0c0-.928-.064-1.712-.192-2.352-.118-.651-.368-1.173-.752-1.568-.374-.395-.918-.592-1.632-.592-.726 0-1.28.197-1.664.592-.374.395-.624.917-.752 1.568-.118.64-.176 1.424-.176 2.352 0 .96.058 1.765.176 2.416.128.651.378 1.173.752 1.568.384.395.938.592 1.664.592.714 0 1.258-.197 1.632-.592.384-.395.634-.917.752-1.568.128-.651.192-1.456.192-2.416zm3.439 0c0-1.835.298-3.264.896-4.288.597-1.035 1.642-1.552 3.136-1.552 1.482 0 2.522.517 3.12 1.552.597 1.024.895 2.453.895 4.288 0 1.867-.298 3.317-.895 4.352s-1.638 1.552-3.12 1.552c-1.494 0-2.539-.517-3.136-1.552s-.896-2.485-.896-4.352zm6.608 0c0-.928-.064-1.712-.192-2.352-.118-.651-.368-1.173-.752-1.568-.374-.395-.918-.592-1.632-.592-.726 0-1.28.197-1.664.592-.374.395-.624.917-.752 1.568-.118.64-.176 1.424-.176 2.352 0 .96.058 1.765.176 2.416.128.651.378 1.173.752 1.568.384.395.938.592 1.664.592.714 0 1.258-.197 1.632-.592.384-.395.634-.917.752-1.568.128-.651.192-1.456.192-2.416zm5.182 3.888l-1.792 4.304h-.976l1.168-4.304h1.6zm1.428-3.888c0-1.835.299-3.264.896-4.288.598-1.035 1.643-1.552 3.136-1.552 1.483 0 2.523.517 3.12 1.552.598 1.024.896 2.453.896 4.288 0 1.867-.298 3.317-.896 4.352s-1.637 1.552-3.12 1.552c-1.493 0-2.538-.517-3.136-1.552s-.896-2.485-.896-4.352zm6.608 0c0-.928-.064-1.712-.192-2.352-.117-.651-.368-1.173-.752-1.568-.373-.395-.917-.592-1.632-.592-.725 0-1.28.197-1.664.592-.373.395-.624.917-.752 1.568-.117.64-.176 1.424-.176 2.352 0 .96.059 1.765.176 2.416.128.651.379 1.173.752 1.568.384.395.939.592 1.664.592.715 0 1.259-.197 1.632-.592.384-.395.635-.917.752-1.568.128-.651.192-1.456.192-2.416zm3.439 0c0-1.835.299-3.264.896-4.288.597-1.035 1.643-1.552 3.136-1.552 1.483 0 2.523.517 3.12 1.552.597 1.024.896 2.453.896 4.288 0 1.867-.299 3.317-.896 4.352s-1.637 1.552-3.12 1.552c-1.493 0-2.539-.517-3.136-1.552s-.896-2.485-.896-4.352zm6.608 0c0-.928-.064-1.712-.192-2.352-.117-.651-.368-1.173-.752-1.568-.373-.395-.917-.592-1.632-.592-.725 0-1.28.197-1.664.592-.373.395-.624.917-.752 1.568-.117.64-.176 1.424-.176 2.352 0 .96.059 1.765.176 2.416.128.651.379 1.173.752 1.568.384.395.939.592 1.664.592.715 0 1.259-.197 1.632-.592.384-.395.635-.917.752-1.568.128-.651.192-1.456.192-2.416zm3.439 0c0-1.835.299-3.264.896-4.288.597-1.035 1.643-1.552 3.136-1.552 1.483 0 2.523.517 3.12 1.552.597 1.024.896 2.453.896 4.288 0 1.867-.299 3.317-.896 4.352s-1.637 1.552-3.12 1.552c-1.493 0-2.539-.517-3.136-1.552s-.896-2.485-.896-4.352zm6.608 0c0-.928-.064-1.712-.192-2.352-.117-.651-.368-1.173-.752-1.568-.373-.395-.917-.592-1.632-.592-.725 0-1.28.197-1.664.592-.373.395-.624.917-.752 1.568-.117.64-.176 1.424-.176 2.352 0 .96.059 1.765.176 2.416.128.651.379 1.173.752 1.568.384.395.939.592 1.664.592.715 0 1.259-.197 1.632-.592.384-.395.635-.917.752-1.568.128-.651.192-1.456.192-2.416zm67.473 2.848a3.03 3.03 0 0 1-.384 1.472c-.256.459-.635.843-1.136 1.152-.491.309-1.083.485-1.776.528v1.296h-.864v-1.296c-.971-.085-1.76-.395-2.368-.928-.608-.544-.918-1.232-.928-2.064h1.552c.042.448.208.837.496 1.168.298.331.714.539 1.248.624v-4c-.715-.181-1.291-.368-1.728-.56a2.83 2.83 0 0 1-1.12-.896c-.309-.405-.464-.949-.464-1.632 0-.864.298-1.579.896-2.144.608-.565 1.413-.88 2.416-.944v-1.328h.864v1.328c.906.075 1.637.368 2.192.88.554.501.874 1.157.96 1.968h-1.552a1.85 1.85 0 0 0-.496-1.008c-.278-.309-.646-.512-1.104-.608v3.904c.704.181 1.274.368 1.712.56a2.57 2.57 0 0 1 1.12.88c.309.405.464.955.464 1.648zm-5.984-5.216c0 .523.154.923.464 1.2s.762.507 1.36.688v-3.696c-.555.053-.998.235-1.328.544-.331.299-.496.72-.496 1.264zm2.688 7.184c.576-.064 1.024-.272 1.344-.624.33-.352.496-.773.496-1.264 0-.523-.16-.923-.48-1.2-.32-.288-.774-.517-1.36-.688v3.776zm5.425-9.152v-1.328h3.008V289h-1.472v-10.24h-1.536zm7.253 8.224l-1.792 4.304h-.976l1.168-4.304h1.6zm1.428-3.888c0-1.835.298-3.264.896-4.288.597-1.035 1.642-1.552 3.136-1.552 1.482 0 2.522.517 3.12 1.552.597 1.024.896 2.453.896 4.288 0 1.867-.299 3.317-.896 4.352S338.022 289 336.54 289c-1.494 0-2.539-.517-3.136-1.552s-.896-2.485-.896-4.352zm6.608 0c0-.928-.064-1.712-.192-2.352-.118-.651-.368-1.173-.752-1.568-.374-.395-.918-.592-1.632-.592-.726 0-1.28.197-1.664.592-.374.395-.624.917-.752 1.568-.118.64-.176 1.424-.176 2.352 0 .96.058 1.765.176 2.416.128.651.378 1.173.752 1.568.384.395.938.592 1.664.592.714 0 1.258-.197 1.632-.592.384-.395.634-.917.752-1.568.128-.651.192-1.456.192-2.416zm3.439 0c0-1.835.298-3.264.896-4.288.597-1.035 1.642-1.552 3.136-1.552 1.482 0 2.522.517 3.12 1.552.597 1.024.895 2.453.895 4.288 0 1.867-.298 3.317-.895 4.352s-1.638 1.552-3.12 1.552c-1.494 0-2.539-.517-3.136-1.552s-.896-2.485-.896-4.352zm6.608 0c0-.928-.064-1.712-.192-2.352-.118-.651-.368-1.173-.752-1.568-.374-.395-.918-.592-1.632-.592-.726 0-1.28.197-1.664.592-.374.395-.624.917-.752 1.568-.118.64-.176 1.424-.176 2.352 0 .96.058 1.765.176 2.416.128.651.378 1.173.752 1.568.384.395.938.592 1.664.592.714 0 1.258-.197 1.632-.592.384-.395.634-.917.752-1.568.128-.651.192-1.456.192-2.416zm3.438 0c0-1.835.299-3.264.896-4.288.598-1.035 1.643-1.552 3.136-1.552 1.483 0 2.523.517 3.12 1.552.598 1.024.896 2.453.896 4.288 0 1.867-.298 3.317-.896 4.352s-1.637 1.552-3.12 1.552c-1.493 0-2.538-.517-3.136-1.552s-.896-2.485-.896-4.352zm6.608 0c0-.928-.064-1.712-.192-2.352-.117-.651-.368-1.173-.752-1.568-.373-.395-.917-.592-1.632-.592-.725 0-1.28.197-1.664.592-.373.395-.624.917-.752 1.568-.117.64-.176 1.424-.176 2.352 0 .96.059 1.765.176 2.416.128.651.379 1.173.752 1.568.384.395.939.592 1.664.592.715 0 1.259-.197 1.632-.592.384-.395.635-.917.752-1.568.128-.651.192-1.456.192-2.416zm5.183 3.888l-1.792 4.304h-.976l1.168-4.304h1.6zm1.428-3.888c0-1.835.299-3.264.896-4.288.597-1.035 1.643-1.552 3.136-1.552 1.483 0 2.523.517 3.12 1.552.597 1.024.896 2.453.896 4.288 0 1.867-.299 3.317-.896 4.352s-1.637 1.552-3.12 1.552c-1.493 0-2.539-.517-3.136-1.552s-.896-2.485-.896-4.352zm6.608 0c0-.928-.064-1.712-.192-2.352-.117-.651-.368-1.173-.752-1.568-.373-.395-.917-.592-1.632-.592-.725 0-1.28.197-1.664.592-.373.395-.624.917-.752 1.568-.117.64-.176 1.424-.176 2.352 0 .96.059 1.765.176 2.416.128.651.379 1.173.752 1.568.384.395.939.592 1.664.592.715 0 1.259-.197 1.632-.592.384-.395.635-.917.752-1.568.128-.651.192-1.456.192-2.416zm3.439 0c0-1.835.299-3.264.896-4.288.597-1.035 1.643-1.552 3.136-1.552 1.483 0 2.523.517 3.12 1.552.597 1.024.896 2.453.896 4.288 0 1.867-.299 3.317-.896 4.352s-1.637 1.552-3.12 1.552c-1.493 0-2.539-.517-3.136-1.552s-.896-2.485-.896-4.352zm6.608 0c0-.928-.064-1.712-.192-2.352-.117-.651-.368-1.173-.752-1.568-.373-.395-.917-.592-1.632-.592-.725 0-1.28.197-1.664.592-.373.395-.624.917-.752 1.568-.117.64-.176 1.424-.176 2.352 0 .96.059 1.765.176 2.416.128.651.379 1.173.752 1.568.384.395.939.592 1.664.592.715 0 1.259-.197 1.632-.592.384-.395.635-.917.752-1.568.128-.651.192-1.456.192-2.416zm3.439 0c0-1.835.299-3.264.896-4.288.597-1.035 1.643-1.552 3.136-1.552 1.483 0 2.523.517 3.12 1.552.597 1.024.896 2.453.896 4.288 0 1.867-.299 3.317-.896 4.352s-1.637 1.552-3.12 1.552c-1.493 0-2.539-.517-3.136-1.552s-.896-2.485-.896-4.352zm6.608 0c0-.928-.064-1.712-.192-2.352-.117-.651-.368-1.173-.752-1.568-.373-.395-.917-.592-1.632-.592-.725 0-1.28.197-1.664.592-.373.395-.624.917-.752 1.568-.117.64-.176 1.424-.176 2.352 0 .96.059 1.765.176 2.416.128.651.379 1.173.752 1.568.384.395.939.592 1.664.592.715 0 1.259-.197 1.632-.592.384-.395.635-.917.752-1.568.128-.651.192-1.456.192-2.416zm63.91 2.848a3.03 3.03 0 0 1-.384 1.472c-.256.459-.635.843-1.136 1.152-.491.309-1.083.485-1.776.528v1.296h-.864v-1.296c-.971-.085-1.76-.395-2.368-.928-.608-.544-.917-1.232-.928-2.064h1.552a2.03 2.03 0 0 0 .496 1.168c.299.331.715.539 1.248.624v-4c-.715-.181-1.291-.368-1.728-.56a2.83 2.83 0 0 1-1.12-.896c-.309-.405-.464-.949-.464-1.632 0-.864.299-1.579.896-2.144.608-.565 1.413-.88 2.416-.944v-1.328h.864v1.328c.907.075 1.637.368 2.192.88.555.501.875 1.157.96 1.968h-1.552c-.053-.373-.219-.709-.496-1.008-.277-.309-.645-.512-1.104-.608v3.904c.704.181 1.275.368 1.712.56a2.57 2.57 0 0 1 1.12.88c.309.405.464.955.464 1.648zm-5.984-5.216c0 .523.155.923.464 1.2s.763.507 1.36.688v-3.696c-.555.053-.997.235-1.328.544-.331.299-.496.72-.496 1.264zm2.688 7.184c.576-.064 1.024-.272 1.344-.624a1.78 1.78 0 0 0 .496-1.264c0-.523-.16-.923-.48-1.2-.32-.288-.773-.517-1.36-.688v3.776zm5.425-9.152v-1.328h3.008V289h-1.472v-10.24h-1.536zm7.253 8.224l-1.792 4.304h-.976l1.168-4.304h1.6zm8.804-8.288h-5.616v3.648c.245-.341.608-.619 1.088-.832.48-.224.997-.336 1.552-.336.885 0 1.605.187 2.16.56.555.363.949.837 1.184 1.424a4.65 4.65 0 0 1 .368 1.84c0 .768-.144 1.456-.432 2.064s-.731 1.088-1.328 1.44c-.587.352-1.317.528-2.192.528-1.12 0-2.027-.288-2.72-.864s-1.115-1.344-1.264-2.304h1.424c.139.608.432 1.083.88 1.424s1.013.512 1.696.512c.843 0 1.477-.251 1.904-.752.427-.512.64-1.184.64-2.016s-.213-1.472-.64-1.92c-.427-.459-1.056-.688-1.888-.688-.565 0-1.061.139-1.488.416-.416.267-.72.635-.912 1.104h-1.376v-6.528h6.96v1.28zm2.671 4.4c0-1.835.299-3.264.896-4.288.597-1.035 1.643-1.552 3.136-1.552 1.483 0 2.523.517 3.12 1.552.597 1.024.896 2.453.896 4.288 0 1.867-.299 3.317-.896 4.352s-1.637 1.552-3.12 1.552c-1.493 0-2.539-.517-3.136-1.552s-.896-2.485-.896-4.352zm6.608 0c0-.928-.064-1.712-.192-2.352-.117-.651-.368-1.173-.752-1.568-.373-.395-.917-.592-1.632-.592-.725 0-1.28.197-1.664.592-.373.395-.624.917-.752 1.568-.117.64-.176 1.424-.176 2.352 0 .96.059 1.765.176 2.416.128.651.379 1.173.752 1.568.384.395.939.592 1.664.592.715 0 1.259-.197 1.632-.592.384-.395.635-.917.752-1.568.128-.651.192-1.456.192-2.416zm3.439 0c0-1.835.298-3.264.896-4.288.597-1.035 1.642-1.552 3.136-1.552 1.482 0 2.522.517 3.12 1.552.597 1.024.896 2.453.896 4.288 0 1.867-.299 3.317-.896 4.352S492.85 289 491.368 289c-1.494 0-2.539-.517-3.136-1.552s-.896-2.485-.896-4.352zm6.608 0c0-.928-.064-1.712-.192-2.352-.118-.651-.368-1.173-.752-1.568-.374-.395-.918-.592-1.632-.592-.726 0-1.28.197-1.664.592-.374.395-.624.917-.752 1.568-.118.64-.176 1.424-.176 2.352 0 .96.058 1.765.176 2.416.128.651.378 1.173.752 1.568.384.395.938.592 1.664.592.714 0 1.258-.197 1.632-.592.384-.395.634-.917.752-1.568.128-.651.192-1.456.192-2.416zm5.183 3.888l-1.792 4.304h-.976l1.168-4.304h1.6zm1.428-3.888c0-1.835.298-3.264.896-4.288.597-1.035 1.642-1.552 3.136-1.552 1.482 0 2.522.517 3.12 1.552.597 1.024.895 2.453.895 4.288 0 1.867-.298 3.317-.895 4.352s-1.638 1.552-3.12 1.552c-1.494 0-2.539-.517-3.136-1.552s-.896-2.485-.896-4.352zm6.608 0c0-.928-.064-1.712-.192-2.352-.118-.651-.368-1.173-.752-1.568-.374-.395-.918-.592-1.632-.592-.726 0-1.28.197-1.664.592-.374.395-.624.917-.752 1.568-.118.64-.176 1.424-.176 2.352 0 .96.058 1.765.176 2.416.128.651.378 1.173.752 1.568.384.395.938.592 1.664.592.714 0 1.258-.197 1.632-.592.384-.395.634-.917.752-1.568.128-.651.192-1.456.192-2.416zm3.438 0c0-1.835.299-3.264.896-4.288.598-1.035 1.643-1.552 3.136-1.552 1.483 0 2.523.517 3.12 1.552.598 1.024.896 2.453.896 4.288 0 1.867-.298 3.317-.896 4.352s-1.637 1.552-3.12 1.552c-1.493 0-2.538-.517-3.136-1.552s-.896-2.485-.896-4.352zm6.608 0c0-.928-.064-1.712-.192-2.352-.117-.651-.368-1.173-.752-1.568-.373-.395-.917-.592-1.632-.592-.725 0-1.28.197-1.664.592-.373.395-.624.917-.752 1.568-.117.64-.176 1.424-.176 2.352 0 .96.059 1.765.176 2.416.128.651.379 1.173.752 1.568.384.395.939.592 1.664.592.715 0 1.259-.197 1.632-.592.384-.395.635-.917.752-1.568.128-.651.192-1.456.192-2.416zm3.439 0c0-1.835.299-3.264.896-4.288.598-1.035 1.643-1.552 3.136-1.552 1.483 0 2.523.517 3.12 1.552.598 1.024.896 2.453.896 4.288 0 1.867-.298 3.317-.896 4.352S526.163 289 524.68 289c-1.493 0-2.538-.517-3.136-1.552s-.896-2.485-.896-4.352zm6.608 0c0-.928-.064-1.712-.192-2.352-.117-.651-.368-1.173-.752-1.568-.373-.395-.917-.592-1.632-.592-.725 0-1.28.197-1.664.592-.373.395-.624.917-.752 1.568-.117.64-.176 1.424-.176 2.352 0 .96.059 1.765.176 2.416.128.651.379 1.173.752 1.568.384.395.939.592 1.664.592.715 0 1.259-.197 1.632-.592.384-.395.635-.917.752-1.568.128-.651.192-1.456.192-2.416z"/><path d="M590.432 285.944a3.03 3.03 0 0 1-.384 1.472c-.256.459-.635.843-1.136 1.152-.491.309-1.083.485-1.776.528v1.296h-.864v-1.296c-.971-.085-1.76-.395-2.368-.928-.608-.544-.917-1.232-.928-2.064h1.552a2.03 2.03 0 0 0 .496 1.168c.299.331.715.539 1.248.624v-4c-.715-.181-1.291-.368-1.728-.56a2.83 2.83 0 0 1-1.12-.896c-.309-.405-.464-.949-.464-1.632 0-.864.299-1.579.896-2.144.608-.565 1.413-.88 2.416-.944v-1.328h.864v1.328c.907.075 1.637.368 2.192.88.555.501.875 1.157.96 1.968h-1.552c-.053-.373-.219-.709-.496-1.008-.277-.309-.645-.512-1.104-.608v3.904c.704.181 1.275.368 1.712.56a2.57 2.57 0 0 1 1.12.88c.309.405.464.955.464 1.648zm-5.984-5.216c0 .523.155.923.464 1.2s.763.507 1.36.688v-3.696c-.555.053-.997.235-1.328.544-.331.299-.496.72-.496 1.264zm2.688 7.184c.576-.064 1.024-.272 1.344-.624a1.78 1.78 0 0 0 .496-1.264c0-.523-.16-.923-.48-1.2-.32-.288-.773-.517-1.36-.688v3.776zm5.633-.08l3.184-2.672c.768-.704 1.413-1.435 1.936-2.192.533-.768.8-1.52.8-2.256 0-.693-.171-1.237-.512-1.632-.331-.405-.869-.608-1.616-.608-.725 0-1.291.229-1.696.688-.395.448-.608 1.051-.64 1.808h-1.408c.043-1.195.405-2.117 1.088-2.768s1.563-.976 2.64-.976c1.099 0 1.968.304 2.608.912.651.608.976 1.445.976 2.512 0 .885-.267 1.749-.8 2.592a11.43 11.43 0 0 1-1.792 2.208l-2.576 2.208h5.504v1.216h-7.696v-1.04zm11.123-.848l-1.792 4.304h-.976l1.168-4.304h1.6zm1.428-3.888c0-1.835.299-3.264.896-4.288.597-1.035 1.643-1.552 3.136-1.552 1.483 0 2.523.517 3.12 1.552.597 1.024.896 2.453.896 4.288 0 1.867-.299 3.317-.896 4.352s-1.637 1.552-3.12 1.552c-1.493 0-2.539-.517-3.136-1.552s-.896-2.485-.896-4.352zm6.608 0c0-.928-.064-1.712-.192-2.352-.117-.651-.368-1.173-.752-1.568-.373-.395-.917-.592-1.632-.592-.725 0-1.28.197-1.664.592-.373.395-.624.917-.752 1.568-.117.64-.176 1.424-.176 2.352 0 .96.059 1.765.176 2.416.128.651.379 1.173.752 1.568.384.395.939.592 1.664.592.715 0 1.259-.197 1.632-.592.384-.395.635-.917.752-1.568.128-.651.192-1.456.192-2.416zm3.439 0c0-1.835.299-3.264.896-4.288.597-1.035 1.643-1.552 3.136-1.552 1.483 0 2.523.517 3.12 1.552.597 1.024.896 2.453.896 4.288 0 1.867-.299 3.317-.896 4.352s-1.637 1.552-3.12 1.552c-1.493 0-2.539-.517-3.136-1.552s-.896-2.485-.896-4.352zm6.608 0c0-.928-.064-1.712-.192-2.352-.117-.651-.368-1.173-.752-1.568-.373-.395-.917-.592-1.632-.592-.725 0-1.28.197-1.664.592-.373.395-.624.917-.752 1.568-.117.64-.176 1.424-.176 2.352 0 .96.059 1.765.176 2.416.128.651.379 1.173.752 1.568.384.395.939.592 1.664.592.715 0 1.259-.197 1.632-.592.384-.395.635-.917.752-1.568.128-.651.192-1.456.192-2.416zm3.439 0c0-1.835.299-3.264.896-4.288.597-1.035 1.643-1.552 3.136-1.552 1.483 0 2.523.517 3.12 1.552.597 1.024.896 2.453.896 4.288 0 1.867-.299 3.317-.896 4.352s-1.637 1.552-3.12 1.552c-1.493 0-2.539-.517-3.136-1.552s-.896-2.485-.896-4.352zm6.608 0c0-.928-.064-1.712-.192-2.352-.117-.651-.368-1.173-.752-1.568-.373-.395-.917-.592-1.632-.592-.725 0-1.28.197-1.664.592-.373.395-.624.917-.752 1.568-.117.64-.176 1.424-.176 2.352 0 .96.059 1.765.176 2.416.128.651.379 1.173.752 1.568.384.395.939.592 1.664.592.715 0 1.259-.197 1.632-.592.384-.395.635-.917.752-1.568.128-.651.192-1.456.192-2.416zm5.183 3.888l-1.792 4.304h-.976l1.168-4.304h1.6zm1.428-3.888c0-1.835.298-3.264.896-4.288.597-1.035 1.642-1.552 3.136-1.552 1.482 0 2.522.517 3.12 1.552.597 1.024.896 2.453.896 4.288 0 1.867-.299 3.317-.896 4.352s-1.638 1.552-3.12 1.552c-1.494 0-2.539-.517-3.136-1.552s-.896-2.485-.896-4.352zm6.608 0c0-.928-.064-1.712-.192-2.352-.118-.651-.368-1.173-.752-1.568-.374-.395-.918-.592-1.632-.592-.726 0-1.28.197-1.664.592-.374.395-.624.917-.752 1.568-.118.64-.176 1.424-.176 2.352 0 .96.058 1.765.176 2.416.128.651.378 1.173.752 1.568.384.395.938.592 1.664.592.714 0 1.258-.197 1.632-.592.384-.395.634-.917.752-1.568.128-.651.192-1.456.192-2.416zm3.439 0c0-1.835.298-3.264.896-4.288.597-1.035 1.642-1.552 3.136-1.552 1.482 0 2.522.517 3.12 1.552.597 1.024.895 2.453.895 4.288 0 1.867-.298 3.317-.895 4.352s-1.638 1.552-3.12 1.552c-1.494 0-2.539-.517-3.136-1.552s-.896-2.485-.896-4.352zm6.608 0c0-.928-.064-1.712-.192-2.352-.118-.651-.368-1.173-.752-1.568-.374-.395-.918-.592-1.632-.592-.726 0-1.28.197-1.664.592-.374.395-.624.917-.752 1.568-.118.64-.176 1.424-.176 2.352 0 .96.058 1.765.176 2.416.128.651.378 1.173.752 1.568.384.395.938.592 1.664.592.714 0 1.258-.197 1.632-.592.384-.395.634-.917.752-1.568.128-.651.192-1.456.192-2.416zm3.438 0c0-1.835.299-3.264.896-4.288.598-1.035 1.643-1.552 3.136-1.552 1.483 0 2.523.517 3.12 1.552.598 1.024.896 2.453.896 4.288 0 1.867-.298 3.317-.896 4.352s-1.637 1.552-3.12 1.552c-1.493 0-2.538-.517-3.136-1.552s-.896-2.485-.896-4.352zm6.608 0c0-.928-.064-1.712-.192-2.352-.117-.651-.368-1.173-.752-1.568-.373-.395-.917-.592-1.632-.592-.725 0-1.28.197-1.664.592-.373.395-.624.917-.752 1.568-.117.64-.176 1.424-.176 2.352 0 .96.059 1.765.176 2.416.128.651.379 1.173.752 1.568.384.395.939.592 1.664.592.715 0 1.259-.197 1.632-.592.384-.395.635-.917.752-1.568.128-.651.192-1.456.192-2.416zm66.098 2.848a3.03 3.03 0 0 1-.384 1.472c-.256.459-.635.843-1.136 1.152-.491.309-1.083.485-1.776.528v1.296h-.864v-1.296c-.971-.085-1.76-.395-2.368-.928-.608-.544-.917-1.232-.928-2.064h1.552a2.03 2.03 0 0 0 .496 1.168c.299.331.715.539 1.248.624v-4c-.715-.181-1.291-.368-1.728-.56a2.83 2.83 0 0 1-1.12-.896c-.309-.405-.464-.949-.464-1.632 0-.864.299-1.579.896-2.144.608-.565 1.413-.88 2.416-.944v-1.328h.864v1.328c.907.075 1.637.368 2.192.88.555.501.875 1.157.96 1.968h-1.552c-.053-.373-.219-.709-.496-1.008-.277-.309-.645-.512-1.104-.608v3.904c.704.181 1.275.368 1.712.56a2.57 2.57 0 0 1 1.12.88c.309.405.464.955.464 1.648zm-5.984-5.216c0 .523.155.923.464 1.2s.763.507 1.36.688v-3.696c-.555.053-.997.235-1.328.544-.331.299-.496.72-.496 1.264zm2.688 7.184c.576-.064 1.024-.272 1.344-.624a1.78 1.78 0 0 0 .496-1.264c0-.523-.16-.923-.48-1.2-.32-.288-.773-.517-1.36-.688v3.776zm5.633-.08l3.184-2.672c.768-.704 1.413-1.435 1.936-2.192.533-.768.8-1.52.8-2.256 0-.693-.171-1.237-.512-1.632-.331-.405-.869-.608-1.616-.608-.725 0-1.291.229-1.696.688-.395.448-.608 1.051-.64 1.808h-1.408c.043-1.195.405-2.117 1.088-2.768s1.563-.976 2.64-.976c1.099 0 1.968.304 2.608.912.651.608.976 1.445.976 2.512 0 .885-.267 1.749-.8 2.592a11.43 11.43 0 0 1-1.792 2.208l-2.576 2.208h5.504v1.216h-7.696v-1.04zm11.123-.848l-1.792 4.304h-.976l1.168-4.304h1.6zm8.804-8.288h-5.616v3.648c.245-.341.608-.619 1.088-.832.48-.224.997-.336 1.552-.336.885 0 1.605.187 2.16.56.555.363.949.837 1.184 1.424a4.65 4.65 0 0 1 .368 1.84c0 .768-.144 1.456-.432 2.064s-.731 1.088-1.328 1.44c-.587.352-1.317.528-2.192.528-1.12 0-2.027-.288-2.72-.864s-1.115-1.344-1.264-2.304h1.424c.139.608.432 1.083.88 1.424s1.013.512 1.696.512c.843 0 1.477-.251 1.904-.752.427-.512.64-1.184.64-2.016s-.213-1.472-.64-1.92c-.427-.459-1.056-.688-1.888-.688-.565 0-1.061.139-1.488.416-.416.267-.72.635-.912 1.104h-1.376v-6.528h6.96v1.28zm2.671 4.4c0-1.835.299-3.264.896-4.288.597-1.035 1.643-1.552 3.136-1.552 1.483 0 2.523.517 3.12 1.552.597 1.024.896 2.453.896 4.288 0 1.867-.299 3.317-.896 4.352s-1.637 1.552-3.12 1.552c-1.493 0-2.539-.517-3.136-1.552s-.896-2.485-.896-4.352zm6.608 0c0-.928-.064-1.712-.192-2.352-.117-.651-.368-1.173-.752-1.568-.373-.395-.917-.592-1.632-.592-.725 0-1.28.197-1.664.592-.373.395-.624.917-.752 1.568-.117.64-.176 1.424-.176 2.352 0 .96.059 1.765.176 2.416.128.651.379 1.173.752 1.568.384.395.939.592 1.664.592.715 0 1.259-.197 1.632-.592.384-.395.635-.917.752-1.568.128-.651.192-1.456.192-2.416zm3.439 0c0-1.835.299-3.264.896-4.288.597-1.035 1.643-1.552 3.136-1.552 1.483 0 2.523.517 3.12 1.552.597 1.024.896 2.453.896 4.288 0 1.867-.299 3.317-.896 4.352s-1.637 1.552-3.12 1.552c-1.493 0-2.539-.517-3.136-1.552s-.896-2.485-.896-4.352zm6.608 0c0-.928-.064-1.712-.192-2.352-.117-.651-.368-1.173-.752-1.568-.373-.395-.917-.592-1.632-.592-.725 0-1.28.197-1.664.592-.373.395-.624.917-.752 1.568-.117.64-.176 1.424-.176 2.352 0 .96.059 1.765.176 2.416.128.651.379 1.173.752 1.568.384.395.939.592 1.664.592.715 0 1.259-.197 1.632-.592.384-.395.635-.917.752-1.568.128-.651.192-1.456.192-2.416zm5.183 3.888l-1.792 4.304h-.976l1.168-4.304h1.6zm1.428-3.888c0-1.835.298-3.264.896-4.288.597-1.035 1.642-1.552 3.136-1.552 1.482 0 2.522.517 3.12 1.552.597 1.024.896 2.453.896 4.288 0 1.867-.299 3.317-.896 4.352s-1.638 1.552-3.12 1.552c-1.494 0-2.539-.517-3.136-1.552s-.896-2.485-.896-4.352zm6.608 0c0-.928-.064-1.712-.192-2.352-.118-.651-.368-1.173-.752-1.568-.374-.395-.918-.592-1.632-.592-.726 0-1.28.197-1.664.592-.374.395-.624.917-.752 1.568-.118.64-.176 1.424-.176 2.352 0 .96.058 1.765.176 2.416.128.651.378 1.173.752 1.568.384.395.938.592 1.664.592.714 0 1.258-.197 1.632-.592.384-.395.634-.917.752-1.568.128-.651.192-1.456.192-2.416zm3.439 0c0-1.835.298-3.264.896-4.288.597-1.035 1.642-1.552 3.136-1.552 1.482 0 2.522.517 3.12 1.552.597 1.024.895 2.453.895 4.288 0 1.867-.298 3.317-.895 4.352s-1.638 1.552-3.12 1.552c-1.494 0-2.539-.517-3.136-1.552s-.896-2.485-.896-4.352zm6.608 0c0-.928-.064-1.712-.192-2.352-.118-.651-.368-1.173-.752-1.568-.374-.395-.918-.592-1.632-.592-.726 0-1.28.197-1.664.592-.374.395-.624.917-.752 1.568-.118.64-.176 1.424-.176 2.352 0 .96.058 1.765.176 2.416.128.651.378 1.173.752 1.568.384.395.938.592 1.664.592.714 0 1.258-.197 1.632-.592.384-.395.634-.917.752-1.568.128-.651.192-1.456.192-2.416zm3.438 0c0-1.835.299-3.264.896-4.288.598-1.035 1.643-1.552 3.136-1.552 1.483 0 2.523.517 3.12 1.552.598 1.024.896 2.453.896 4.288 0 1.867-.298 3.317-.896 4.352s-1.637 1.552-3.12 1.552c-1.493 0-2.538-.517-3.136-1.552s-.896-2.485-.896-4.352zm6.608 0c0-.928-.064-1.712-.192-2.352-.117-.651-.368-1.173-.752-1.568-.373-.395-.917-.592-1.632-.592-.725 0-1.28.197-1.664.592-.373.395-.624.917-.752 1.568-.117.64-.176 1.424-.176 2.352 0 .96.059 1.765.176 2.416.128.651.379 1.173.752 1.568.384.395.939.592 1.664.592.715 0 1.259-.197 1.632-.592.384-.395.635-.917.752-1.568.128-.651.192-1.456.192-2.416z"/><path d="M870.432 285.944a3.03 3.03 0 0 1-.384 1.472c-.256.459-.635.843-1.136 1.152-.491.309-1.083.485-1.776.528v1.296h-.864v-1.296c-.971-.085-1.76-.395-2.368-.928-.608-.544-.917-1.232-.928-2.064h1.552a2.03 2.03 0 0 0 .496 1.168c.299.331.715.539 1.248.624v-4c-.715-.181-1.291-.368-1.728-.56a2.83 2.83 0 0 1-1.12-.896c-.309-.405-.464-.949-.464-1.632 0-.864.299-1.579.896-2.144.608-.565 1.413-.88 2.416-.944v-1.328h.864v1.328c.907.075 1.637.368 2.192.88.555.501.875 1.157.96 1.968h-1.552c-.053-.373-.219-.709-.496-1.008-.277-.309-.645-.512-1.104-.608v3.904c.704.181 1.275.368 1.712.56a2.57 2.57 0 0 1 1.12.88c.309.405.464.955.464 1.648zm-5.984-5.216c0 .523.155.923.464 1.2s.763.507 1.36.688v-3.696c-.555.053-.997.235-1.328.544-.331.299-.496.72-.496 1.264zm2.688 7.184c.576-.064 1.024-.272 1.344-.624a1.78 1.78 0 0 0 .496-1.264c0-.523-.16-.923-.48-1.2-.32-.288-.773-.517-1.36-.688v3.776zm5.777-7.568c.075-.981.453-1.749 1.136-2.304s1.568-.832 2.656-.832c.725 0 1.349.133 1.872.4.533.256.933.608 1.2 1.056.277.448.416.955.416 1.52 0 .661-.192 1.232-.576 1.712-.373.48-.864.789-1.472.928v.08c.693.171 1.243.507 1.648 1.008s.608 1.157.608 1.968c0 .608-.139 1.157-.416 1.648-.277.48-.693.859-1.248 1.136s-1.221.416-2 .416c-1.131 0-2.059-.293-2.784-.88-.725-.597-1.131-1.44-1.216-2.528h1.408c.075.64.336 1.163.784 1.568s1.045.608 1.792.608 1.312-.192 1.696-.576c.395-.395.592-.901.592-1.52 0-.8-.267-1.376-.8-1.728s-1.339-.528-2.416-.528h-.368v-1.216h.384c.981-.011 1.723-.171 2.224-.48.501-.32.752-.811.752-1.472 0-.565-.187-1.019-.56-1.36-.363-.341-.885-.512-1.568-.512-.661 0-1.195.171-1.6.512s-.645.8-.72 1.376h-1.424zm11.198 6.64l-1.792 4.304h-.976l1.168-4.304h1.6zm1.428-3.888c0-1.835.299-3.264.896-4.288.597-1.035 1.643-1.552 3.136-1.552 1.483 0 2.523.517 3.12 1.552.597 1.024.896 2.453.896 4.288 0 1.867-.299 3.317-.896 4.352s-1.637 1.552-3.12 1.552c-1.493 0-2.539-.517-3.136-1.552s-.896-2.485-.896-4.352zm6.608 0c0-.928-.064-1.712-.192-2.352-.117-.651-.368-1.173-.752-1.568-.373-.395-.917-.592-1.632-.592-.725 0-1.28.197-1.664.592-.373.395-.624.917-.752 1.568-.117.64-.176 1.424-.176 2.352 0 .96.059 1.765.176 2.416.128.651.379 1.173.752 1.568.384.395.939.592 1.664.592.715 0 1.259-.197 1.632-.592.384-.395.635-.917.752-1.568.128-.651.192-1.456.192-2.416zm3.439 0c0-1.835.298-3.264.896-4.288.597-1.035 1.642-1.552 3.136-1.552 1.482 0 2.522.517 3.12 1.552.597 1.024.896 2.453.896 4.288 0 1.867-.299 3.317-.896 4.352S901.1 289 899.618 289c-1.494 0-2.539-.517-3.136-1.552s-.896-2.485-.896-4.352zm6.608 0c0-.928-.064-1.712-.192-2.352-.118-.651-.368-1.173-.752-1.568-.374-.395-.918-.592-1.632-.592-.726 0-1.28.197-1.664.592-.374.395-.624.917-.752 1.568-.118.64-.176 1.424-.176 2.352 0 .96.058 1.765.176 2.416.128.651.378 1.173.752 1.568.384.395.938.592 1.664.592.714 0 1.258-.197 1.632-.592.384-.395.634-.917.752-1.568.128-.651.192-1.456.192-2.416zm3.439 0c0-1.835.298-3.264.896-4.288.597-1.035 1.642-1.552 3.136-1.552 1.482 0 2.522.517 3.12 1.552.597 1.024.896 2.453.896 4.288 0 1.867-.299 3.317-.896 4.352s-1.638 1.552-3.12 1.552c-1.494 0-2.539-.517-3.136-1.552s-.896-2.485-.896-4.352zm6.608 0c0-.928-.064-1.712-.192-2.352-.118-.651-.368-1.173-.752-1.568-.374-.395-.918-.592-1.632-.592-.726 0-1.28.197-1.664.592-.374.395-.624.917-.752 1.568-.118.64-.176 1.424-.176 2.352 0 .96.058 1.765.176 2.416.128.651.378 1.173.752 1.568.384.395.938.592 1.664.592.714 0 1.258-.197 1.632-.592.384-.395.634-.917.752-1.568.128-.651.192-1.456.192-2.416zm5.183 3.888l-1.792 4.304h-.977l1.169-4.304h1.6zm1.427-3.888c0-1.835.299-3.264.896-4.288.598-1.035 1.643-1.552 3.136-1.552 1.483 0 2.523.517 3.12 1.552.598 1.024.896 2.453.896 4.288 0 1.867-.298 3.317-.896 4.352s-1.637 1.552-3.12 1.552c-1.493 0-2.538-.517-3.136-1.552s-.896-2.485-.896-4.352zm6.608 0c0-.928-.064-1.712-.192-2.352-.117-.651-.368-1.173-.752-1.568-.373-.395-.917-.592-1.632-.592-.725 0-1.28.197-1.664.592-.373.395-.624.917-.752 1.568-.117.64-.176 1.424-.176 2.352 0 .96.059 1.765.176 2.416.128.651.379 1.173.752 1.568.384.395.939.592 1.664.592.715 0 1.259-.197 1.632-.592.384-.395.635-.917.752-1.568.128-.651.192-1.456.192-2.416zm3.439 0c0-1.835.299-3.264.896-4.288.598-1.035 1.643-1.552 3.136-1.552 1.483 0 2.523.517 3.12 1.552.598 1.024.896 2.453.896 4.288 0 1.867-.298 3.317-.896 4.352S934.413 289 932.93 289c-1.493 0-2.538-.517-3.136-1.552s-.896-2.485-.896-4.352zm6.608 0c0-.928-.064-1.712-.192-2.352-.117-.651-.368-1.173-.752-1.568-.373-.395-.917-.592-1.632-.592-.725 0-1.28.197-1.664.592-.373.395-.624.917-.752 1.568-.117.64-.176 1.424-.176 2.352 0 .96.059 1.765.176 2.416.128.651.379 1.173.752 1.568.384.395.939.592 1.664.592.715 0 1.259-.197 1.632-.592.384-.395.635-.917.752-1.568.128-.651.192-1.456.192-2.416zm3.439 0c0-1.835.299-3.264.896-4.288.597-1.035 1.643-1.552 3.136-1.552 1.483 0 2.523.517 3.12 1.552.597 1.024.896 2.453.896 4.288 0 1.867-.299 3.317-.896 4.352S944.46 289 942.977 289c-1.493 0-2.539-.517-3.136-1.552s-.896-2.485-.896-4.352zm6.608 0c0-.928-.064-1.712-.192-2.352-.117-.651-.368-1.173-.752-1.568-.373-.395-.917-.592-1.632-.592-.725 0-1.28.197-1.664.592-.373.395-.624.917-.752 1.568-.117.64-.176 1.424-.176 2.352 0 .96.059 1.765.176 2.416.128.651.379 1.173.752 1.568.384.395.939.592 1.664.592.715 0 1.259-.197 1.632-.592.384-.395.635-.917.752-1.568.128-.651.192-1.456.192-2.416zm63.877 2.848c0 .512-.13 1.003-.38 1.472a3.22 3.22 0 0 1-1.14 1.152c-.49.309-1.08.485-1.77.528v1.296h-.87v-1.296c-.97-.085-1.76-.395-2.37-.928-.6-.544-.91-1.232-.92-2.064h1.55c.04.448.21.837.49 1.168.3.331.72.539 1.25.624v-4c-.71-.181-1.29-.368-1.73-.56-.43-.192-.81-.491-1.12-.896s-.46-.949-.46-1.632c0-.864.3-1.579.9-2.144s1.41-.88 2.41-.944v-1.328h.87v1.328c.9.075 1.63.368 2.19.88.55.501.87 1.157.96 1.968h-1.55c-.06-.373-.22-.709-.5-1.008-.28-.309-.65-.512-1.1-.608v3.904c.7.181 1.27.368 1.71.56.45.181.82.475 1.12.88.31.405.46.955.46 1.648zm-5.98-5.216c0 .523.15.923.46 1.2s.76.507 1.36.688v-3.696c-.55.053-1 .235-1.33.544-.33.299-.49.72-.49 1.264zm2.69 7.184c.57-.064 1.02-.272 1.34-.624.33-.352.5-.773.5-1.264 0-.523-.16-.923-.48-1.2-.32-.288-.78-.517-1.36-.688v3.776zm5.77-7.568c.08-.981.46-1.749 1.14-2.304s1.57-.832 2.66-.832c.72 0 1.34.133 1.87.4.53.256.93.608 1.2 1.056a2.89 2.89 0 0 1 .41 1.52c0 .661-.19 1.232-.57 1.712s-.87.789-1.47.928v.08c.69.171 1.24.507 1.64 1.008.41.501.61 1.157.61 1.968 0 .608-.14 1.157-.41 1.648-.28.48-.7.859-1.25 1.136-.56.277-1.22.416-2 .416-1.13 0-2.06-.293-2.79-.88-.72-.597-1.13-1.44-1.21-2.528h1.41c.07.64.33 1.163.78 1.568s1.04.608 1.79.608 1.31-.192 1.7-.576c.39-.395.59-.901.59-1.52 0-.8-.27-1.376-.8-1.728s-1.34-.528-2.42-.528h-.36v-1.216h.38c.98-.011 1.72-.171 2.22-.48.5-.32.76-.811.76-1.472 0-.565-.19-1.019-.56-1.36s-.89-.512-1.57-.512c-.66 0-1.2.171-1.6.512-.41.341-.65.8-.72 1.376h-1.43zm11.2 6.64l-1.79 4.304h-.98l1.17-4.304h1.6zm8.8-8.288h-5.61v3.648c.24-.341.61-.619 1.09-.832.48-.224.99-.336 1.55-.336.88 0 1.6.187 2.16.56a3 3 0 0 1 1.18 1.424c.25.576.37 1.189.37 1.84 0 .768-.14 1.456-.43 2.064s-.73 1.088-1.33 1.44c-.59.352-1.32.528-2.19.528-1.12 0-2.03-.288-2.72-.864s-1.12-1.344-1.27-2.304h1.43c.14.608.43 1.083.88 1.424s1.01.512 1.69.512c.85 0 1.48-.251 1.91-.752.43-.512.64-1.184.64-2.016s-.21-1.472-.64-1.92c-.43-.459-1.06-.688-1.89-.688-.56 0-1.06.139-1.49.416-.41.267-.72.635-.91 1.104h-1.38v-6.528h6.96v1.28zm2.68 4.4c0-1.835.29-3.264.89-4.288.6-1.035 1.64-1.552 3.14-1.552 1.48 0 2.52.517 3.12 1.552.6 1.024.89 2.453.89 4.288 0 1.867-.29 3.317-.89 4.352s-1.64 1.552-3.12 1.552c-1.5 0-2.54-.517-3.14-1.552s-.89-2.485-.89-4.352zm6.6 0c0-.928-.06-1.712-.19-2.352-.12-.651-.37-1.173-.75-1.568-.37-.395-.92-.592-1.63-.592-.73 0-1.28.197-1.67.592-.37.395-.62.917-.75 1.568-.12.64-.17 1.424-.17 2.352 0 .96.05 1.765.17 2.416.13.651.38 1.173.75 1.568.39.395.94.592 1.67.592.71 0 1.26-.197 1.63-.592.38-.395.63-.917.75-1.568.13-.651.19-1.456.19-2.416zm3.44 0c0-1.835.3-3.264.9-4.288.6-1.035 1.64-1.552 3.13-1.552s2.53.517 3.12 1.552c.6 1.024.9 2.453.9 4.288 0 1.867-.3 3.317-.9 4.352-.59 1.035-1.63 1.552-3.12 1.552s-2.53-.517-3.13-1.552-.9-2.485-.9-4.352zm6.61 0c0-.928-.06-1.712-.19-2.352-.12-.651-.37-1.173-.75-1.568s-.92-.592-1.64-.592-1.28.197-1.66.592c-.37.395-.62.917-.75 1.568-.12.64-.18 1.424-.18 2.352 0 .96.06 1.765.18 2.416.13.651.38 1.173.75 1.568.38.395.94.592 1.66.592s1.26-.197 1.64-.592.63-.917.75-1.568c.13-.651.19-1.456.19-2.416zm5.18 3.888l-1.79 4.304h-.97l1.16-4.304h1.6zm1.43-3.888c0-1.835.3-3.264.9-4.288.59-1.035 1.64-1.552 3.13-1.552s2.53.517 3.12 1.552c.6 1.024.9 2.453.9 4.288 0 1.867-.3 3.317-.9 4.352-.59 1.035-1.63 1.552-3.12 1.552s-2.54-.517-3.13-1.552c-.6-1.035-.9-2.485-.9-4.352zm6.61 0c0-.928-.06-1.712-.19-2.352-.12-.651-.37-1.173-.75-1.568s-.92-.592-1.64-.592-1.28.197-1.66.592c-.37.395-.62.917-.75 1.568-.12.64-.18 1.424-.18 2.352 0 .96.06 1.765.18 2.416.13.651.38 1.173.75 1.568.38.395.94.592 1.66.592s1.26-.197 1.64-.592.63-.917.75-1.568c.13-.651.19-1.456.19-2.416zm3.44 0c0-1.835.3-3.264.89-4.288.6-1.035 1.65-1.552 3.14-1.552 1.48 0 2.52.517 3.12 1.552.6 1.024.9 2.453.9 4.288 0 1.867-.3 3.317-.9 4.352s-1.64 1.552-3.12 1.552c-1.49 0-2.54-.517-3.14-1.552-.59-1.035-.89-2.485-.89-4.352zm6.61 0c0-.928-.07-1.712-.2-2.352-.11-.651-.36-1.173-.75-1.568-.37-.395-.92-.592-1.63-.592-.73 0-1.28.197-1.66.592s-.63.917-.76 1.568c-.11.64-.17 1.424-.17 2.352 0 .96.06 1.765.17 2.416.13.651.38 1.173.76 1.568s.93.592 1.66.592c.71 0 1.26-.197 1.63-.592.39-.395.64-.917.75-1.568.13-.651.2-1.456.2-2.416zm3.44 0c0-1.835.29-3.264.89-4.288.6-1.035 1.64-1.552 3.14-1.552 1.48 0 2.52.517 3.12 1.552.59 1.024.89 2.453.89 4.288 0 1.867-.3 3.317-.89 4.352-.6 1.035-1.64 1.552-3.12 1.552-1.5 0-2.54-.517-3.14-1.552s-.89-2.485-.89-4.352zm6.6 0c0-.928-.06-1.712-.19-2.352-.12-.651-.37-1.173-.75-1.568-.37-.395-.92-.592-1.63-.592-.73 0-1.28.197-1.67.592-.37.395-.62.917-.75 1.568-.12.64-.17 1.424-.17 2.352 0 .96.05 1.765.17 2.416.13.651.38 1.173.75 1.568.39.395.94.592 1.67.592.71 0 1.26-.197 1.63-.592.38-.395.63-.917.75-1.568.13-.651.19-1.456.19-2.416z"/><path d="M1148.43 285.944c0 .512-.13 1.003-.38 1.472a3.22 3.22 0 0 1-1.14 1.152c-.49.309-1.08.485-1.77.528v1.296h-.87v-1.296c-.97-.085-1.76-.395-2.37-.928-.6-.544-.91-1.232-.92-2.064h1.55c.04.448.21.837.49 1.168.3.331.72.539 1.25.624v-4c-.71-.181-1.29-.368-1.73-.56-.43-.192-.81-.491-1.12-.896s-.46-.949-.46-1.632c0-.864.3-1.579.9-2.144s1.41-.88 2.41-.944v-1.328h.87v1.328c.9.075 1.63.368 2.19.88.55.501.87 1.157.96 1.968h-1.55c-.06-.373-.22-.709-.5-1.008-.28-.309-.65-.512-1.1-.608v3.904c.7.181 1.27.368 1.71.56.45.181.82.475 1.12.88.31.405.46.955.46 1.648zm-5.98-5.216c0 .523.15.923.46 1.2s.76.507 1.36.688v-3.696c-.55.053-1 .235-1.33.544-.33.299-.49.72-.49 1.264zm2.69 7.184c.57-.064 1.02-.272 1.34-.624.33-.352.5-.773.5-1.264 0-.523-.16-.923-.48-1.2-.32-.288-.78-.517-1.36-.688v3.776zm5.45-1.488v-1.104l5.62-7.776h1.74v7.616h1.6v1.264h-1.6V289h-1.44v-2.576h-5.92zm5.99-7.36l-4.31 6.096h4.31v-6.096zm6.17 7.92l-1.79 4.304h-.98l1.17-4.304h1.6zm1.43-3.888c0-1.835.3-3.264.9-4.288.59-1.035 1.64-1.552 3.13-1.552 1.48 0 2.52.517 3.12 1.552.6 1.024.9 2.453.9 4.288 0 1.867-.3 3.317-.9 4.352s-1.64 1.552-3.12 1.552c-1.49 0-2.54-.517-3.13-1.552-.6-1.035-.9-2.485-.9-4.352zm6.61 0c0-.928-.07-1.712-.19-2.352-.12-.651-.37-1.173-.76-1.568-.37-.395-.91-.592-1.63-.592s-1.28.197-1.66.592-.63.917-.75 1.568c-.12.64-.18 1.424-.18 2.352 0 .96.06 1.765.18 2.416s.37 1.173.75 1.568.94.592 1.66.592 1.26-.197 1.63-.592c.39-.395.64-.917.76-1.568s.19-1.456.19-2.416zm3.44 0c0-1.835.3-3.264.89-4.288.6-1.035 1.65-1.552 3.14-1.552 1.48 0 2.52.517 3.12 1.552.6 1.024.89 2.453.89 4.288 0 1.867-.29 3.317-.89 4.352s-1.64 1.552-3.12 1.552c-1.49 0-2.54-.517-3.14-1.552-.59-1.035-.89-2.485-.89-4.352zm6.6 0c0-.928-.06-1.712-.19-2.352-.11-.651-.37-1.173-.75-1.568-.37-.395-.92-.592-1.63-.592-.73 0-1.28.197-1.67.592-.37.395-.62.917-.75 1.568-.11.64-.17 1.424-.17 2.352 0 .96.06 1.765.17 2.416.13.651.38 1.173.75 1.568.39.395.94.592 1.67.592.71 0 1.26-.197 1.63-.592.38-.395.64-.917.75-1.568.13-.651.19-1.456.19-2.416zm3.44 0c0-1.835.3-3.264.9-4.288.6-1.035 1.64-1.552 3.14-1.552 1.48 0 2.52.517 3.12 1.552.59 1.024.89 2.453.89 4.288 0 1.867-.3 3.317-.89 4.352-.6 1.035-1.64 1.552-3.12 1.552-1.5 0-2.54-.517-3.14-1.552s-.9-2.485-.9-4.352zm6.61 0c0-.928-.06-1.712-.19-2.352-.12-.651-.37-1.173-.75-1.568s-.92-.592-1.63-.592c-.73 0-1.28.197-1.67.592-.37.395-.62.917-.75 1.568-.12.64-.18 1.424-.18 2.352 0 .96.06 1.765.18 2.416.13.651.38 1.173.75 1.568.39.395.94.592 1.67.592.71 0 1.25-.197 1.63-.592s.63-.917.75-1.568c.13-.651.19-1.456.19-2.416zm5.18 3.888l-1.79 4.304h-.97l1.16-4.304h1.6zm1.43-3.888c0-1.835.3-3.264.9-4.288.6-1.035 1.64-1.552 3.13-1.552s2.53.517 3.12 1.552c.6 1.024.9 2.453.9 4.288 0 1.867-.3 3.317-.9 4.352-.59 1.035-1.63 1.552-3.12 1.552s-2.53-.517-3.13-1.552-.9-2.485-.9-4.352zm6.61 0c0-.928-.06-1.712-.19-2.352-.12-.651-.37-1.173-.75-1.568s-.92-.592-1.64-.592-1.28.197-1.66.592c-.37.395-.62.917-.75 1.568-.12.64-.18 1.424-.18 2.352 0 .96.06 1.765.18 2.416.13.651.38 1.173.75 1.568.38.395.94.592 1.66.592s1.26-.197 1.64-.592.63-.917.75-1.568c.13-.651.19-1.456.19-2.416zm3.44 0c0-1.835.3-3.264.89-4.288.6-1.035 1.65-1.552 3.14-1.552 1.48 0 2.52.517 3.12 1.552.6 1.024.9 2.453.9 4.288 0 1.867-.3 3.317-.9 4.352s-1.64 1.552-3.12 1.552c-1.49 0-2.54-.517-3.14-1.552-.59-1.035-.89-2.485-.89-4.352zm6.61 0c0-.928-.07-1.712-.2-2.352-.11-.651-.36-1.173-.75-1.568-.37-.395-.91-.592-1.63-.592s-1.28.197-1.66.592-.63.917-.76 1.568c-.11.64-.17 1.424-.17 2.352 0 .96.06 1.765.17 2.416.13.651.38 1.173.76 1.568s.94.592 1.66.592 1.26-.197 1.63-.592c.39-.395.64-.917.75-1.568.13-.651.2-1.456.2-2.416zm3.44 0c0-1.835.29-3.264.89-4.288.6-1.035 1.64-1.552 3.14-1.552 1.48 0 2.52.517 3.12 1.552.6 1.024.89 2.453.89 4.288 0 1.867-.29 3.317-.89 4.352s-1.64 1.552-3.12 1.552c-1.5 0-2.54-.517-3.14-1.552s-.89-2.485-.89-4.352zm6.6 0c0-.928-.06-1.712-.19-2.352-.12-.651-.37-1.173-.75-1.568-.37-.395-.92-.592-1.63-.592-.73 0-1.28.197-1.67.592-.37.395-.62.917-.75 1.568-.12.64-.17 1.424-.17 2.352 0 .96.05 1.765.17 2.416.13.651.38 1.173.75 1.568.39.395.94.592 1.67.592.71 0 1.26-.197 1.63-.592.38-.395.63-.917.75-1.568.13-.651.19-1.456.19-2.416zM86.08 184.242a3.41 3.41 0 0 0-1.504 1.344c-.363.587-.544 1.269-.544 2.048a4.15 4.15 0 0 0 .544 2.112c.352.619.864 1.109 1.536 1.472.661.352 1.429.528 2.304.528s1.643-.176 2.304-.528a3.93 3.93 0 0 0 1.536-1.472c.352-.629.528-1.333.528-2.112 0-1.088-.325-1.984-.976-2.688s-1.531-1.115-2.64-1.232v4.448h-1.184v-6h1.12a5.58 5.58 0 0 1 2.528.864c.757.491 1.36 1.136 1.808 1.936.437.8.656 1.691.656 2.672 0 1.035-.24 1.979-.72 2.832-.491.853-1.168 1.531-2.032 2.032-.864.491-1.84.736-2.928.736s-2.064-.245-2.928-.736a5.31 5.31 0 0 1-2.032-2.032c-.491-.853-.736-1.797-.736-2.832 0-1.184.293-2.229.88-3.136.587-.917 1.413-1.584 2.48-2v1.744zm.576-5.461a2.81 2.81 0 0 1-1.168-1.088c-.277-.48-.416-1.062-.416-1.744h1.504v.384c0 1.632.885 2.448 2.656 2.448H94v1.456h-8.768v-1.456h1.424zm7.488-8.337c0 .821-.187 1.568-.56 2.24A4.07 4.07 0 0 1 92 174.252c-.693.373-1.493.56-2.4.56-.896 0-1.685-.192-2.368-.576a4.01 4.01 0 0 1-1.584-1.6c-.373-.672-.56-1.424-.56-2.256s.187-1.584.56-2.256a3.93 3.93 0 0 1 1.568-1.584c.683-.395 1.477-.592 2.384-.592s1.707.203 2.4.608c.683.395 1.211.933 1.584 1.616s.56 1.44.56 2.272zm-1.28 0a3.08 3.08 0 0 0-.368-1.472 2.74 2.74 0 0 0-1.104-1.104c-.491-.288-1.088-.432-1.792-.432s-1.301.139-1.792.416-.853.64-1.088 1.088a2.98 2.98 0 0 0-.368 1.456 3.02 3.02 0 0 0 .368 1.472c.235.437.597.789 1.088 1.056s1.088.4 1.792.4c.715 0 1.317-.128 1.808-.384.491-.267.859-.619 1.104-1.056a2.99 2.99 0 0 0 .352-1.44zm-7.632-18.09L94 155.09v1.504l-6.96 2.112 6.96 2.112v1.504l-8.768 2.752v-1.488l7.36-2.016-7.36-2.176v-1.488l7.376-2.128-7.376-1.984v-1.44zm1.2-3.221H91.6c.427 0 .731-.091.912-.272.171-.182.256-.496.256-.944v-1.072H94v1.312c0 .81-.187 1.418-.56 1.824s-.987.608-1.84.608h-5.168v1.136h-1.2v-1.136h-2.208v-1.456h2.208v-2.288h1.2v2.288zm-1.36-8.405c0-.661.144-1.258.432-1.792.277-.533.699-.949 1.264-1.248.565-.309 1.253-.464 2.064-.464H94v1.44h-4.96c-.875 0-1.541.219-2 .656-.469.438-.704 1.035-.704 1.792 0 .768.24 1.382.72 1.84.48.448 1.179.672 2.096.672H94v1.456H82.16v-1.456h4.32c-.448-.288-.795-.682-1.04-1.184-.245-.512-.368-1.082-.368-1.712z"/></g><path d="M116 60v209M228 60v205M360 60v205M494 60v205M628 60v205M765 60v205M905 60v205m137-205v205m140-205v205" stroke="#cbcbcb" stroke-width=".5"/><path fill="#0d2d59" d="M116 115h959v99H116z"/><path fill="#c13b45" d="M116 126h448v77H116z"/><path d="M439.608 168.176a4.57 4.57 0 0 1-.648 2.352c-.416.72-1.04 1.32-1.872 1.8-.816.464-1.784.736-2.904.816v1.944h-1.536v-1.968c-1.6-.144-2.888-.624-3.864-1.44-.976-.832-1.48-1.952-1.512-3.36h3.6c.096 1.152.688 1.848 1.776 2.088v-4.584c-1.152-.288-2.08-.576-2.784-.864a4.5 4.5 0 0 1-1.824-1.392c-.512-.64-.768-1.512-.768-2.616 0-1.392.496-2.528 1.488-3.408 1.008-.88 2.304-1.384 3.888-1.512v-1.944h1.536v1.944c1.536.128 2.76.592 3.672 1.392.928.8 1.448 1.904 1.56 3.312h-3.624c-.048-.464-.216-.864-.504-1.2-.272-.352-.64-.6-1.104-.744v4.536c1.2.304 2.144.6 2.832.888.704.272 1.312.728 1.824 1.368.512.624.768 1.488.768 2.592zm-8.832-7.392c0 .528.16.96.48 1.296.32.32.784.584 1.392.792v-4.152c-.576.08-1.032.296-1.368.648s-.504.824-.504 1.416zm3.408 9.672c.608-.112 1.08-.36 1.416-.744.352-.384.528-.848.528-1.392 0-.528-.168-.952-.504-1.272s-.816-.584-1.44-.792v4.2zm8.383-11.856v-3.096h5.784V173h-3.456v-14.4h-2.328zm13.159 10.872l-2.808 6.744h-2.16l1.56-6.744h3.408zm1.894.12v-2.64l7.848-11.232h3.912v10.944h2.112v2.928h-2.112V173h-3.36v-3.408h-8.4zm8.616-10.272l-4.92 7.344h4.92v-7.344zm7.251 10.272v-2.64l7.848-11.232h3.912v10.944h2.112v2.928h-2.112V173h-3.36v-3.408h-8.4zm8.616-10.272l-4.92 7.344h4.92v-7.344zm8.452 9.888l3.672-3.192c.912-.864 1.672-1.76 2.28-2.688s.912-1.84.912-2.736c0-.816-.192-1.456-.576-1.92s-.976-.696-1.776-.696-1.416.272-1.848.816c-.432.528-.656 1.256-.672 2.184h-3.264c.064-1.92.632-3.376 1.704-4.368 1.088-.992 2.464-1.488 4.128-1.488 1.824 0 3.224.488 4.2 1.464.976.96 1.464 2.232 1.464 3.816 0 1.248-.336 2.44-1.008 3.576s-1.44 2.128-2.304 2.976l-3.384 3.024h7.08v2.784h-11.856v-2.496l1.248-1.056zm16.781.264l-2.808 6.744h-2.16l1.56-6.744h3.408zm2.038-5.448c0-2.768.496-4.936 1.488-6.504 1.008-1.568 2.672-2.352 4.992-2.352s3.976.784 4.968 2.352c1.008 1.568 1.512 3.736 1.512 6.504 0 2.784-.504 4.968-1.512 6.552-.992 1.584-2.648 2.376-4.968 2.376s-3.984-.792-4.992-2.376c-.992-1.584-1.488-3.768-1.488-6.552zm9.648 0c0-1.184-.08-2.176-.24-2.976-.144-.816-.448-1.48-.912-1.992-.448-.512-1.12-.768-2.016-.768s-1.576.256-2.04.768c-.448.512-.752 1.176-.912 1.992-.144.8-.216 1.792-.216 2.976 0 1.216.072 2.24.216 3.072.144.816.448 1.48.912 1.992.464.496 1.144.744 2.04.744s1.576-.248 2.04-.744c.464-.512.768-1.176.912-1.992.144-.832.216-1.856.216-3.072zm5.459-5.424v-3.096h5.784V173h-3.456v-14.4h-2.328zm8.96 10.992v-2.64l7.848-11.232h3.912v10.944h2.111v2.928h-2.111V173h-3.36v-3.408h-8.4zm8.616-10.272l-4.92 7.344h4.92v-7.344zm393.551 8.856a4.57 4.57 0 0 1-.648 2.352c-.416.72-1.04 1.32-1.872 1.8-.816.464-1.784.736-2.904.816v1.944h-1.536v-1.968c-1.6-.144-2.888-.624-3.864-1.44-.976-.832-1.48-1.952-1.512-3.36h3.6c.096 1.152.688 1.848 1.776 2.088v-4.584c-1.152-.288-2.08-.576-2.784-.864a4.5 4.5 0 0 1-1.824-1.392c-.512-.64-.768-1.512-.768-2.616 0-1.392.496-2.528 1.488-3.408 1.008-.88 2.304-1.384 3.888-1.512v-1.944h1.536v1.944c1.536.128 2.76.592 3.672 1.392.928.8 1.448 1.904 1.56 3.312h-3.624c-.048-.464-.216-.864-.504-1.2-.272-.352-.64-.6-1.104-.744v4.536c1.2.304 2.144.6 2.832.888.704.272 1.312.728 1.824 1.368.512.624.768 1.488.768 2.592zm-8.832-7.392c0 .528.16.96.48 1.296.32.32.784.584 1.392.792v-4.152c-.576.08-1.032.296-1.368.648s-.504.824-.504 1.416zm3.408 9.672c.608-.112 1.08-.36 1.416-.744.352-.384.528-.848.528-1.392 0-.528-.168-.952-.504-1.272s-.816-.584-1.44-.792v4.2zm8.839-10.344c.08-1.6.64-2.832 1.68-3.696 1.056-.88 2.44-1.32 4.152-1.32 1.168 0 2.168.208 3 .624.832.4 1.456.952 1.872 1.656.432.688.648 1.472.648 2.352 0 1.008-.264 1.864-.792 2.568-.512.688-1.128 1.152-1.848 1.392v.096c.928.288 1.648.8 2.16 1.536.528.736.792 1.68.792 2.832 0 .96-.224 1.816-.672 2.568-.432.752-1.08 1.344-1.944 1.776-.848.416-1.872.624-3.072.624-1.808 0-3.28-.456-4.416-1.368s-1.736-2.256-1.8-4.032h3.264c.032.784.296 1.416.792 1.896.512.464 1.208.696 2.088.696.816 0 1.44-.224 1.872-.672.448-.464.672-1.056.672-1.776 0-.96-.304-1.648-.912-2.064s-1.552-.624-2.832-.624h-.696v-2.76h.696c2.272 0 3.408-.76 3.408-2.28 0-.688-.208-1.224-.624-1.608-.4-.384-.984-.576-1.752-.576-.752 0-1.336.208-1.752.624-.4.4-.632.912-.696 1.536h-3.288zm18.375 9.36l-2.808 6.744h-2.16l1.56-6.744h3.408zm11.11-9.6c-.16-.672-.44-1.176-.84-1.512-.384-.336-.944-.504-1.68-.504-1.104 0-1.92.448-2.448 1.344-.512.88-.776 2.32-.792 4.32.384-.64.944-1.136 1.68-1.488a5.29 5.29 0 0 1 2.4-.552c1.04 0 1.96.224 2.76.672s1.424 1.104 1.872 1.968c.448.848.672 1.872.672 3.072 0 1.136-.232 2.152-.696 3.048-.448.88-1.112 1.568-1.992 2.064s-1.928.744-3.144.744c-1.664 0-2.976-.368-3.936-1.104-.944-.736-1.608-1.76-1.992-3.072-.368-1.328-.552-2.96-.552-4.896 0-2.928.504-5.136 1.512-6.624 1.008-1.504 2.6-2.256 4.776-2.256 1.68 0 2.984.456 3.912 1.368s1.464 2.048 1.608 3.408h-3.12zm-2.448 4.368c-.848 0-1.56.248-2.136.744s-.864 1.216-.864 2.16.264 1.688.792 2.232c.544.544 1.304.816 2.28.816.864 0 1.544-.264 2.04-.792.512-.528.768-1.24.768-2.136 0-.928-.248-1.664-.744-2.208-.48-.544-1.192-.816-2.136-.816zm8.728-.216c0-2.768.496-4.936 1.488-6.504 1.008-1.568 2.672-2.352 4.992-2.352s3.976.784 4.968 2.352c1.008 1.568 1.512 3.736 1.512 6.504 0 2.784-.504 4.968-1.512 6.552-.992 1.584-2.648 2.376-4.968 2.376s-3.984-.792-4.992-2.376c-.992-1.584-1.488-3.768-1.488-6.552zm9.648 0c0-1.184-.08-2.176-.24-2.976-.144-.816-.448-1.48-.912-1.992-.448-.512-1.12-.768-2.016-.768s-1.576.256-2.04.768c-.448.512-.752 1.176-.912 1.992-.144.8-.216 1.792-.216 2.976 0 1.216.072 2.24.216 3.072.144.816.448 1.48.912 1.992.464.496 1.144.744 2.04.744s1.576-.248 2.04-.744c.464-.512.768-1.176.912-1.992.144-.832.216-1.856.216-3.072zm17.624-5.616h-7.773v4.104c.336-.416.816-.752 1.44-1.008a4.93 4.93 0 0 1 1.992-.408c1.28 0 2.331.28 3.141.84.82.56 1.41 1.28 1.78 2.16.37.864.55 1.792.55 2.784 0 1.84-.53 3.32-1.58 4.44-1.04 1.12-2.531 1.68-4.467 1.68-1.824 0-3.28-.456-4.368-1.368s-1.704-2.104-1.848-3.576h3.264c.144.64.464 1.152.96 1.536.512.384 1.16.576 1.944.576.944 0 1.656-.296 2.136-.888s.72-1.376.72-2.352c0-.992-.248-1.744-.744-2.256-.48-.528-1.192-.792-2.136-.792-.672 0-1.232.168-1.68.504s-.768.784-.96 1.344h-3.216v-10.272h10.845v2.952zm7.74 11.064l-2.8 6.744h-2.16l1.56-6.744h3.4zm2.04-5.448c0-2.768.5-4.936 1.49-6.504 1.01-1.568 2.67-2.352 4.99-2.352s3.98.784 4.97 2.352c1.01 1.568 1.51 3.736 1.51 6.504 0 2.784-.5 4.968-1.51 6.552-.99 1.584-2.65 2.376-4.97 2.376s-3.98-.792-4.99-2.376c-.99-1.584-1.49-3.768-1.49-6.552zm9.65 0c0-1.184-.08-2.176-.24-2.976-.14-.816-.45-1.48-.91-1.992-.45-.512-1.12-.768-2.02-.768-.89 0-1.57.256-2.04.768-.45.512-.75 1.176-.91 1.992-.14.8-.22 1.792-.22 2.976 0 1.216.08 2.24.22 3.072.14.816.45 1.48.91 1.992.47.496 1.15.744 2.04.744.9 0 1.58-.248 2.04-.744.47-.512.77-1.176.91-1.992.15-.832.22-1.856.22-3.072zm5.92-3.912c.08-1.6.64-2.832 1.68-3.696 1.05-.88 2.44-1.32 4.15-1.32 1.17 0 2.17.208 3 .624.83.4 1.45.952 1.87 1.656.43.688.65 1.472.65 2.352 0 1.008-.27 1.864-.79 2.568-.52.688-1.13 1.152-1.85 1.392v.096c.93.288 1.65.8 2.16 1.536.53.736.79 1.68.79 2.832 0 .96-.22 1.816-.67 2.568-.43.752-1.08 1.344-1.95 1.776-.84.416-1.87.624-3.07.624-1.81 0-3.28-.456-4.41-1.368-1.14-.912-1.74-2.256-1.8-4.032h3.26c.03.784.3 1.416.79 1.896.51.464 1.21.696 2.09.696.82 0 1.44-.224 1.87-.672.45-.464.67-1.056.67-1.776 0-.96-.3-1.648-.91-2.064s-1.55-.624-2.83-.624h-.7v-2.76h.7c2.27 0 3.41-.76 3.41-2.28 0-.688-.21-1.224-.63-1.608-.4-.384-.98-.576-1.75-.576-.75 0-1.33.208-1.75.624-.4.4-.63.912-.7 1.536h-3.28zm26.08-1.704h-7.78v4.104c.34-.416.82-.752 1.44-1.008a4.92 4.92 0 0 1 1.99-.408c1.28 0 2.33.28 3.15.84.81.56 1.4 1.28 1.77 2.16.37.864.55 1.792.55 2.784 0 1.84-.52 3.32-1.58 4.44-1.04 1.12-2.53 1.68-4.46 1.68-1.83 0-3.28-.456-4.37-1.368s-1.71-2.104-1.85-3.576h3.26c.15.64.47 1.152.96 1.536.52.384 1.16.576 1.95.576.94 0 1.65-.296 2.13-.888s.72-1.376.72-2.352c0-.992-.24-1.744-.74-2.256-.48-.528-1.19-.792-2.14-.792-.67 0-1.23.168-1.68.504-.44.336-.76.784-.96 1.344h-3.21v-10.272h10.85v2.952z" fill="#fff"/><path d="M559.096 360.848v1.184h-3.04V372H554.6v-9.968h-3.056v-1.184h7.552zm5.616 11.296c-.821 0-1.568-.187-2.24-.56-.661-.373-1.184-.901-1.568-1.584-.373-.693-.56-1.493-.56-2.4 0-.896.192-1.685.576-2.368.395-.693.928-1.221 1.6-1.584.672-.373 1.424-.56 2.256-.56s1.584.187 2.256.56a3.93 3.93 0 0 1 1.584 1.568c.395.683.592 1.477.592 2.384s-.202 1.707-.608 2.4c-.394.683-.933 1.211-1.616 1.584s-1.44.56-2.272.56zm0-1.28c.523 0 1.014-.123 1.472-.368a2.74 2.74 0 0 0 1.104-1.104c.288-.491.432-1.088.432-1.792s-.138-1.301-.416-1.792-.64-.853-1.088-1.088c-.448-.245-.933-.368-1.456-.368a3.02 3.02 0 0 0-1.472.368c-.437.235-.789.597-1.056 1.088s-.4 1.088-.4 1.792c0 .715.128 1.317.384 1.808.267.491.619.859 1.056 1.104.438.235.918.352 1.44.352zm7.867-6.016c.288-.501.714-.917 1.28-1.248.576-.341 1.242-.512 2-.512.778 0 1.482.187 2.112.56.64.373 1.141.901 1.504 1.584.362.672.544 1.456.544 2.352 0 .885-.182 1.675-.544 2.368s-.864 1.232-1.504 1.616c-.63.384-1.334.576-2.112.576-.747 0-1.408-.165-1.984-.496-.566-.341-.998-.763-1.296-1.264v5.776h-1.456v-12.928h1.456v1.616zm5.952 2.736c0-.661-.134-1.237-.4-1.728s-.63-.864-1.088-1.12c-.448-.256-.944-.384-1.488-.384-.534 0-1.03.133-1.488.4-.448.256-.811.635-1.088 1.136-.267.491-.4 1.061-.4 1.712 0 .661.133 1.243.4 1.744.277.491.64.869 1.088 1.136a3 3 0 0 0 1.488.384c.544 0 1.04-.128 1.488-.384a2.87 2.87 0 0 0 1.088-1.136c.266-.501.4-1.088.4-1.76zm9.126 3.232h3.904V372h-5.36v-11.152h1.456v9.968zm6.202-9.008c-.277 0-.512-.096-.704-.288s-.288-.427-.288-.704.096-.512.288-.704.427-.288.704-.288c.267 0 .491.096.672.288.192.192.288.427.288.704s-.096.512-.288.704c-.181.192-.405.288-.672.288zm.704 1.424V372h-1.456v-8.768h1.456zm6.754-.16c1.066 0 1.93.325 2.592.976.661.64.992 1.568.992 2.784V372h-1.44v-4.96c0-.875-.219-1.541-.656-2-.438-.469-1.035-.704-1.792-.704-.768 0-1.382.24-1.84.72-.448.48-.672 1.179-.672 2.096V372h-1.456v-8.768h1.456v1.248c.288-.448.677-.795 1.168-1.04a3.7 3.7 0 0 1 1.648-.368zm13.962 4.208a8.57 8.57 0 0 1-.048.88h-7.008c.053.864.347 1.541.88 2.032.544.48 1.2.72 1.968.72.629 0 1.152-.144 1.568-.432.427-.299.725-.693.896-1.184h1.568c-.235.843-.704 1.531-1.408 2.064-.704.523-1.579.784-2.624.784-.832 0-1.579-.187-2.24-.56-.651-.373-1.163-.901-1.536-1.584-.373-.693-.56-1.493-.56-2.4s.181-1.701.544-2.384a3.78 3.78 0 0 1 1.52-1.568c.661-.373 1.419-.56 2.272-.56.832 0 1.568.181 2.208.544a3.7 3.7 0 0 1 1.472 1.504c.352.629.528 1.344.528 2.144zm-1.504-.304c0-.555-.123-1.029-.368-1.424-.245-.405-.581-.709-1.008-.912a3.01 3.01 0 0 0-1.392-.32c-.736 0-1.365.235-1.888.704-.512.469-.805 1.12-.88 1.952h5.536z" fill="#515151"/><rect x="523" y="360" width="14" height="14" rx="3" fill="#c13b45"/><path d="M686.816 366.256c.405.064.773.229 1.104.496.341.267.608.597.8.992.203.395.304.816.304 1.264a2.83 2.83 0 0 1-.432 1.536c-.288.448-.709.805-1.264 1.072-.544.256-1.189.384-1.936.384h-4.16v-11.152h4c.757 0 1.403.128 1.936.384.533.245.933.581 1.2 1.008a2.66 2.66 0 0 1 .4 1.44c0 .661-.181 1.211-.544 1.648-.352.427-.821.736-1.408.928zm-4.128-.592h2.448c.683 0 1.211-.16 1.584-.48s.56-.763.56-1.328-.187-1.008-.56-1.328-.912-.48-1.616-.48h-2.416v3.616zm2.576 5.136c.725 0 1.291-.171 1.696-.512s.608-.816.608-1.424c0-.619-.213-1.104-.64-1.456-.427-.363-.997-.544-1.712-.544h-2.528v3.936h2.576zm9.605 1.344c-.822 0-1.568-.187-2.24-.56a4.06 4.06 0 0 1-1.568-1.584c-.374-.693-.56-1.493-.56-2.4 0-.896.192-1.685.576-2.368.394-.693.928-1.221 1.6-1.584.672-.373 1.424-.56 2.256-.56s1.584.187 2.256.56a3.93 3.93 0 0 1 1.584 1.568c.394.683.592 1.477.592 2.384s-.203 1.707-.608 2.4a4.12 4.12 0 0 1-1.616 1.584c-.683.373-1.44.56-2.272.56zm0-1.28a3.08 3.08 0 0 0 1.472-.368c.458-.245.826-.613 1.104-1.104.288-.491.432-1.088.432-1.792s-.139-1.301-.416-1.792-.64-.853-1.088-1.088a2.99 2.99 0 0 0-1.456-.368c-.534 0-1.024.123-1.472.368-.438.235-.79.597-1.056 1.088s-.4 1.088-.4 1.792c0 .715.128 1.317.384 1.808.266.491.618.859 1.056 1.104a2.99 2.99 0 0 0 1.44.352zm8.186-6.432v5.168c0 .427.091.731.272.912.181.171.496.256.944.256h1.072V372h-1.312c-.811 0-1.419-.187-1.824-.56s-.608-.987-.608-1.84v-5.168h-1.136v-1.2h1.136v-2.208h1.456v2.208h2.288v1.2h-2.288zm5.828 0v5.168c0 .427.091.731.272.912.181.171.496.256.944.256h1.072V372h-1.312c-.811 0-1.419-.187-1.824-.56s-.608-.987-.608-1.84v-5.168h-1.136v-1.2h1.136v-2.208h1.456v2.208h2.288v1.2h-2.288zm7.876 7.712c-.821 0-1.568-.187-2.24-.56-.661-.373-1.184-.901-1.568-1.584-.373-.693-.56-1.493-.56-2.4 0-.896.192-1.685.576-2.368.395-.693.928-1.221 1.6-1.584.672-.373 1.424-.56 2.256-.56s1.584.187 2.256.56a3.93 3.93 0 0 1 1.584 1.568c.395.683.592 1.477.592 2.384s-.203 1.707-.608 2.4c-.395.683-.933 1.211-1.616 1.584s-1.44.56-2.272.56zm0-1.28a3.08 3.08 0 0 0 1.472-.368 2.74 2.74 0 0 0 1.104-1.104c.288-.491.432-1.088.432-1.792s-.139-1.301-.416-1.792-.64-.853-1.088-1.088c-.448-.245-.933-.368-1.456-.368a3.02 3.02 0 0 0-1.472.368c-.437.235-.789.597-1.056 1.088s-.4 1.088-.4 1.792c0 .715.128 1.317.384 1.808.267.491.619.859 1.056 1.104a2.99 2.99 0 0 0 1.44.352zm16.955-7.792c.682 0 1.29.144 1.824.432.533.277.954.699 1.264 1.264s.464 1.253.464 2.064V372h-1.44v-4.96c0-.875-.219-1.541-.656-2-.427-.469-1.008-.704-1.744-.704-.758 0-1.36.245-1.808.736-.448.48-.672 1.179-.672 2.096V372h-1.44v-4.96c0-.875-.219-1.541-.656-2-.427-.469-1.008-.704-1.744-.704-.758 0-1.36.245-1.808.736-.448.48-.672 1.179-.672 2.096V372h-1.456v-8.768h1.456v1.264c.288-.459.672-.811 1.152-1.056.49-.245 1.029-.368 1.616-.368.736 0 1.386.165 1.952.496s.986.816 1.264 1.456c.245-.619.65-1.099 1.216-1.44s1.194-.512 1.888-.512zm11.662 7.744h3.904V372h-5.36v-11.152h1.456v9.968zm6.202-9.008c-.278 0-.512-.096-.704-.288s-.288-.427-.288-.704.096-.512.288-.704.426-.288.704-.288a.89.89 0 0 1 .672.288c.192.192.288.427.288.704s-.096.512-.288.704a.89.89 0 0 1-.672.288zm.704 1.424V372h-1.456v-8.768h1.456zm6.753-.16c1.067 0 1.931.325 2.592.976.662.64.992 1.568.992 2.784V372h-1.44v-4.96c0-.875-.218-1.541-.656-2-.437-.469-1.034-.704-1.792-.704-.768 0-1.381.24-1.84.72-.448.48-.672 1.179-.672 2.096V372h-1.456v-8.768h1.456v1.248c.288-.448.678-.795 1.168-1.04.502-.245 1.051-.368 1.648-.368zm13.963 4.208a8.57 8.57 0 0 1-.048.88h-7.008c.053.864.346 1.541.88 2.032.544.48 1.2.72 1.968.72.629 0 1.152-.144 1.568-.432a2.36 2.36 0 0 0 .896-1.184h1.568c-.235.843-.704 1.531-1.408 2.064-.704.523-1.579.784-2.624.784-.832 0-1.579-.187-2.24-.56-.651-.373-1.163-.901-1.536-1.584-.374-.693-.56-1.493-.56-2.4s.181-1.701.544-2.384.869-1.205 1.52-1.568c.661-.373 1.418-.56 2.272-.56.832 0 1.568.181 2.208.544s1.13.864 1.472 1.504c.352.629.528 1.344.528 2.144zm-1.504-.304c0-.555-.123-1.029-.368-1.424-.246-.405-.582-.709-1.008-.912a3.01 3.01 0 0 0-1.392-.32c-.736 0-1.366.235-1.888.704-.512.469-.806 1.12-.88 1.952h5.536z" fill="#515151"/><rect x="653" y="360" width="14" height="14" rx="3" fill="#0d2d59"/></svg>